<?xml version="1.0" encoding="UTF-8" standalone="no" ?>
<!DOCTYPE svg PUBLIC "-//W3C//DTD SVG 1.1//EN" "http://www.w3.org/Graphics/SVG/1.1/DTD/svg11.dtd">
<svg xmlns="http://www.w3.org/2000/svg" xmlns:xlink="http://www.w3.org/1999/xlink" version="1.1" width="1280" height="720" viewBox="0 0 1280 720" xml:space="preserve">
<desc>Created with Fabric.js 5.2.4</desc>
<defs>
</defs>
<rect x="0" y="0" width="100%" height="100%" fill="transparent"></rect>
<g transform="matrix(1 0 0 1 640 360)" id="9620a267-8cd4-471e-9a43-a42e00fdc128"  >
<rect style="stroke: none; stroke-width: 1; stroke-dasharray: none; stroke-linecap: butt; stroke-dashoffset: 0; stroke-linejoin: miter; stroke-miterlimit: 4; fill: rgb(255,255,255); fill-rule: nonzero; opacity: 1; visibility: hidden;" vector-effect="non-scaling-stroke"  x="-640" y="-360" rx="0" ry="0" width="1280" height="720" />
</g>
<g transform="matrix(Infinity NaN NaN Infinity 0 0)" id="eaa3736a-d925-4c6b-b7e5-2c49b9fa846c"  >
</g>
<g transform="matrix(0.89 0 0 0.89 947.01 351.61)"  >
<g style="" vector-effect="non-scaling-stroke"   >
		<g transform="matrix(1 0 0 1 0 -37.9)" clip-path="url(#CLIPPATH_350)"  >
<clipPath id="CLIPPATH_350" >
	<rect transform="matrix(1 0 0 1 0 0)" id="clip0_2923_51892" x="-720" y="-384" rx="0" ry="0" width="1440" height="768" />
</clipPath>
<rect style="stroke: none; stroke-width: 1; stroke-dasharray: none; stroke-linecap: butt; stroke-dashoffset: 0; stroke-linejoin: miter; stroke-miterlimit: 4; fill: none; fill-rule: nonzero; opacity: 1;" vector-effect="non-scaling-stroke"  x="-720" y="-384" rx="0" ry="0" width="1440" height="768" />
</g>
		<g transform="matrix(1 0 0 1 -196.87 341.93)" clip-path="url(#CLIPPATH_351)"  >
<clipPath id="CLIPPATH_351" >
	<rect transform="matrix(1 0 0 1 196.87 -379.82)" id="clip0_2923_51892" x="-720" y="-384" rx="0" ry="0" width="1440" height="768" />
</clipPath>
<path style="stroke: none; stroke-width: 1; stroke-dasharray: none; stroke-linecap: butt; stroke-dashoffset: 0; stroke-linejoin: miter; stroke-miterlimit: 4; fill: rgb(198,181,181); fill-rule: evenodd; opacity: 1;" vector-effect="non-scaling-stroke"  transform=" translate(-523.13, -763.82)" d="M 504.029 843.793 C 499.932 843.793 496.703 842.195 497.022 840.325 L 523.698 683.852 L 549.26 683.852 L 511.604 840.926 C 511.212 842.558 508.202 843.793 504.616 843.793" stroke-linecap="round" />
</g>
		<g transform="matrix(1 0 0 1 353.87 341.93)" clip-path="url(#CLIPPATH_352)"  >
<clipPath id="CLIPPATH_352" >
	<rect transform="matrix(1 0 0 1 -353.87 -379.82)" id="clip0_2923_51892" x="-720" y="-384" rx="0" ry="0" width="1440" height="768" />
</clipPath>
<path style="stroke: none; stroke-width: 1; stroke-dasharray: none; stroke-linecap: butt; stroke-dashoffset: 0; stroke-linejoin: miter; stroke-miterlimit: 4; fill: rgb(198,181,181); fill-rule: evenodd; opacity: 1;" vector-effect="non-scaling-stroke"  transform=" translate(-1073.87, -763.82)" d="M 1092.97 843.793 C 1097.07 843.793 1100.3 842.195 1099.98 840.325 L 1073.3 683.852 L 1047.74 683.852 L 1085.4 840.926 C 1085.79 842.558 1088.8 843.793 1092.38 843.793" stroke-linecap="round" />
</g>
		<g transform="matrix(1 0 0 1 78.5 259.03)" clip-path="url(#CLIPPATH_353)"  >
<clipPath id="CLIPPATH_353" >
	<rect transform="matrix(1 0 0 1 -78.5 -296.93)" id="clip0_2923_51892" x="-720" y="-384" rx="0" ry="0" width="1440" height="768" />
</clipPath>
<path style="stroke: none; stroke-width: 1; stroke-dasharray: none; stroke-linecap: butt; stroke-dashoffset: 0; stroke-linejoin: miter; stroke-miterlimit: 4; fill: rgb(214,200,200); fill-rule: evenodd; opacity: 1;" vector-effect="non-scaling-stroke"  transform=" translate(-798.5, -680.93)" d="M 1088.42 683.852 L 508.579 683.852 C 506.474 683.852 504.504 683.377 503.313 682.583 C 500.397 680.642 503.433 678 508.579 678 L 1088.42 678 C 1093.57 678 1096.6 680.642 1093.69 682.583 C 1092.5 683.377 1090.53 683.852 1088.42 683.852 Z" stroke-linecap="round" />
</g>
		<g transform="matrix(1 0 0 1 78.5 263.91)" clip-path="url(#CLIPPATH_354)"  >
<clipPath id="CLIPPATH_354" >
	<rect transform="matrix(1 0 0 1 -78.5 -301.8)" id="clip0_2923_51892" x="-720" y="-384" rx="0" ry="0" width="1440" height="768" />
</clipPath>
<path style="stroke: none; stroke-width: 1; stroke-dasharray: none; stroke-linecap: butt; stroke-dashoffset: 0; stroke-linejoin: miter; stroke-miterlimit: 4; fill: rgb(186,162,162); fill-rule: evenodd; opacity: 1;" vector-effect="non-scaling-stroke"  transform=" translate(-798.5, -685.8)" d="M 1074.15 687.752 L 522.846 687.752 L 523.697 683.852 L 1073.3 683.852 L 1074.15 687.752 Z" stroke-linecap="round" />
</g>
		<g transform="matrix(1 0 0 1 273.69 215.79)" clip-path="url(#CLIPPATH_355)"  >
<clipPath id="CLIPPATH_355" >
	<rect transform="matrix(1 0 0 1 -273.68 -253.68)" id="clip0_2923_51892" x="-720" y="-384" rx="0" ry="0" width="1440" height="768" />
</clipPath>
<path style="stroke: none; stroke-width: 1; stroke-dasharray: none; stroke-linecap: butt; stroke-dashoffset: 0; stroke-linejoin: miter; stroke-miterlimit: 4; fill: rgb(249,220,201); fill-rule: nonzero; opacity: 1;" vector-effect="non-scaling-stroke"  transform=" translate(-993.68, -637.68)" d="M 1009.99 678 L 977.378 678 C 975.38 678 973.695 676.486 973.448 674.469 L 965.96 613.494 L 965.96 597.368 L 1021.41 597.368 L 1021.41 613.494 L 1013.92 674.469 C 1013.67 676.486 1011.99 678 1009.99 678 Z" stroke-linecap="round" />
</g>
		<g transform="matrix(1 0 0 1 273.69 215.79)" clip-path="url(#CLIPPATH_356)"  >
<clipPath id="CLIPPATH_356" >
	<rect transform="matrix(1 0 0 1 -273.68 -253.68)" id="clip0_2923_51892" x="-720" y="-384" rx="0" ry="0" width="1440" height="768" />
</clipPath>
<path style="stroke: none; stroke-width: 1; stroke-dasharray: none; stroke-linecap: butt; stroke-dashoffset: 0; stroke-linejoin: miter; stroke-miterlimit: 4; fill: rgb(246,203,175); fill-rule: nonzero; opacity: 1;" vector-effect="non-scaling-stroke"  transform=" translate(-993.68, -637.68)" d="M 1009.99 678 C 1011.99 678 1013.67 676.486 1013.92 674.469 L 1021.41 613.494 L 1021.41 597.368 L 965.96 597.368 L 965.96 613.494 L 1005.04 613.494 C 1006.18 613.494 1007.26 613.991 1008.01 614.858 C 1008.76 615.725 1009.11 616.878 1008.97 618.026 L 1002.04 674.469 C 1001.79 676.486 1000.11 678 998.108 678 L 1009.99 678 Z" stroke-linecap="round" />
</g>
		<g transform="matrix(1 0 0 1 273.68 173.46)" clip-path="url(#CLIPPATH_357)"  >
<clipPath id="CLIPPATH_357" >
	<rect transform="matrix(1 0 0 1 -273.68 -211.35)" id="clip0_2923_51892" x="-720" y="-384" rx="0" ry="0" width="1440" height="768" />
</clipPath>
<path style="stroke: none; stroke-width: 1; stroke-dasharray: none; stroke-linecap: butt; stroke-dashoffset: 0; stroke-linejoin: miter; stroke-miterlimit: 4; fill: rgb(101,52,48); fill-rule: nonzero; opacity: 1;" vector-effect="non-scaling-stroke"  transform=" translate(-993.68, -595.35)" d="M 1017.45 597.368 L 1017.45 601.4 L 969.92 601.4 L 969.92 597.368 L 972.786 591.533 C 973.457 590.168 974.828 589.305 976.329 589.305 L 1011.04 589.305 C 1012.54 589.305 1013.91 590.168 1014.58 591.533 L 1017.45 597.368 Z" stroke-linecap="round" />
</g>
		<g transform="matrix(1 0 0 1 287.55 173.46)" clip-path="url(#CLIPPATH_358)"  >
<clipPath id="CLIPPATH_358" >
	<rect transform="matrix(1 0 0 1 -287.55 -211.35)" id="clip0_2923_51892" x="-720" y="-384" rx="0" ry="0" width="1440" height="768" />
</clipPath>
<path style="stroke: none; stroke-width: 1; stroke-dasharray: none; stroke-linecap: butt; stroke-dashoffset: 0; stroke-linejoin: miter; stroke-miterlimit: 4; fill: rgb(62,25,12); fill-rule: nonzero; opacity: 1;" vector-effect="non-scaling-stroke"  transform=" translate(-1007.55, -595.35)" d="M 1014.58 591.533 C 1013.91 590.168 1012.54 589.305 1011.04 589.305 L 997.644 589.305 C 999.832 589.303 1001.61 591.109 1001.61 593.336 C 1001.61 595.564 999.832 597.37 997.644 597.368 L 997.644 601.4 L 1017.45 601.4 L 1017.45 597.368 L 1014.58 591.533 Z" stroke-linecap="round" />
</g>
		<g transform="matrix(1 0 0 1 273.68 183.53)" clip-path="url(#CLIPPATH_359)"  >
<clipPath id="CLIPPATH_359" >
	<rect transform="matrix(1 0 0 1 -273.68 -221.43)" id="clip0_2923_51892" x="-720" y="-384" rx="0" ry="0" width="1440" height="768" />
</clipPath>
<path style="stroke: none; stroke-width: 1; stroke-dasharray: none; stroke-linecap: butt; stroke-dashoffset: 0; stroke-linejoin: miter; stroke-miterlimit: 4; fill: rgb(124,83,79); fill-rule: nonzero; opacity: 1;" vector-effect="non-scaling-stroke"  transform=" translate(-993.68, -605.43)" d="M 965.96 597.368 L 1021.41 597.368 C 1023.59 597.368 1025.37 599.173 1025.37 601.4 L 1025.37 609.463 C 1025.37 611.69 1023.59 613.494 1021.41 613.494 L 965.96 613.494 C 963.773 613.494 962 611.69 962 609.463 L 962 601.4 C 962 599.173 963.773 597.368 965.96 597.368 Z" stroke-linecap="round" />
</g>
		<g transform="matrix(1 0 0 1 273.69 219.82)" clip-path="url(#CLIPPATH_360)"  >
<clipPath id="CLIPPATH_360" >
	<rect transform="matrix(1 0 0 1 -273.68 -257.72)" id="clip0_2923_51892" x="-720" y="-384" rx="0" ry="0" width="1440" height="768" />
</clipPath>
<path style="stroke: none; stroke-width: 1; stroke-dasharray: none; stroke-linecap: butt; stroke-dashoffset: 0; stroke-linejoin: miter; stroke-miterlimit: 4; fill: rgb(183,123,101); fill-rule: nonzero; opacity: 1;" vector-effect="non-scaling-stroke"  transform=" translate(-993.68, -641.72)" d="M 1017.45 657.842 L 969.92 657.842 L 965.96 625.589 L 1021.41 625.589 L 1017.45 657.842 Z" stroke-linecap="round" />
</g>
		<g transform="matrix(1 0 0 1 291.5 219.82)" clip-path="url(#CLIPPATH_361)"  >
<clipPath id="CLIPPATH_361" >
	<rect transform="matrix(1 0 0 1 -291.5 -257.72)" id="clip0_2923_51892" x="-720" y="-384" rx="0" ry="0" width="1440" height="768" />
</clipPath>
<path style="stroke: none; stroke-width: 1; stroke-dasharray: none; stroke-linecap: butt; stroke-dashoffset: 0; stroke-linejoin: miter; stroke-miterlimit: 4; fill: rgb(170,100,74); fill-rule: nonzero; opacity: 1;" vector-effect="non-scaling-stroke"  transform=" translate(-1011.5, -641.72)" d="M 1001.6 657.842 L 1017.45 657.842 L 1021.41 625.589 L 1005.56 625.589 L 1001.6 657.842 Z" stroke-linecap="round" />
</g>
		<g transform="matrix(1 0 0 1 293.48 183.53)" clip-path="url(#CLIPPATH_362)"  >
<clipPath id="CLIPPATH_362" >
	<rect transform="matrix(1 0 0 1 -293.48 -221.43)" id="clip0_2923_51892" x="-720" y="-384" rx="0" ry="0" width="1440" height="768" />
</clipPath>
<path style="stroke: none; stroke-width: 1; stroke-dasharray: none; stroke-linecap: butt; stroke-dashoffset: 0; stroke-linejoin: miter; stroke-miterlimit: 4; fill: rgb(101,52,48); fill-rule: nonzero; opacity: 1;" vector-effect="non-scaling-stroke"  transform=" translate(-1013.48, -605.43)" d="M 1021.41 597.368 L 1001.6 597.368 C 1003.79 597.368 1005.56 599.173 1005.56 601.4 L 1005.56 609.463 C 1005.56 611.69 1003.79 613.494 1001.6 613.494 L 1021.41 613.494 C 1023.59 613.494 1025.37 611.69 1025.37 609.463 L 1025.37 601.4 C 1025.37 599.173 1023.59 597.368 1021.41 597.368 Z" stroke-linecap="round" />
</g>
		<g transform="matrix(1 0 0 1 253.88 183.53)" clip-path="url(#CLIPPATH_363)"  >
<clipPath id="CLIPPATH_363" >
	<rect transform="matrix(1 0 0 1 -253.88 -221.43)" id="clip0_2923_51892" x="-720" y="-384" rx="0" ry="0" width="1440" height="768" />
</clipPath>
<path style="stroke: none; stroke-width: 1; stroke-dasharray: none; stroke-linecap: butt; stroke-dashoffset: 0; stroke-linejoin: miter; stroke-miterlimit: 4; fill: rgb(147,113,110); fill-rule: nonzero; opacity: 1;" vector-effect="non-scaling-stroke"  transform=" translate(-973.88, -605.43)" d="M 973.881 597.368 C 976.069 597.368 977.842 599.173 977.842 601.4 L 977.842 609.463 C 977.842 611.69 976.069 613.494 973.881 613.494 C 971.693 613.494 969.92 611.69 969.92 609.463 L 969.92 601.4 C 969.92 599.173 971.693 597.368 973.881 597.368 Z" stroke-linecap="round" />
</g>
		<g transform="matrix(1 0 0 1 273.6 155.92)" clip-path="url(#CLIPPATH_364)"  >
<clipPath id="CLIPPATH_364" >
	<rect transform="matrix(1 0 0 1 -0.1 0.69)" id="clip1_2923_51892" clip-path="url(#undefined)" x="-9.5" y="-7.5" rx="0" ry="0" width="19" height="15" />
</clipPath>
<path style="stroke: none; stroke-width: 1; stroke-dasharray: none; stroke-linecap: butt; stroke-dashoffset: 0; stroke-linejoin: miter; stroke-miterlimit: 4; fill: rgb(199,204,209); fill-rule: nonzero; opacity: 1;" vector-effect="non-scaling-stroke"  transform=" translate(-993.6, -577.81)" d="M 993.604 584.63 C 992.988 584.63 992.489 584.122 992.489 583.495 C 992.489 583.195 992.607 582.906 992.816 582.693 L 993.317 582.183 C 994.169 581.316 994.168 579.91 993.316 579.044 C 993.214 578.94 993.103 578.847 992.983 578.766 C 990.957 577.39 990.411 574.603 991.763 572.541 C 991.924 572.295 992.109 572.066 992.314 571.857 L 992.816 571.346 C 993.243 570.896 993.949 570.883 994.392 571.318 C 994.835 571.754 994.847 572.472 994.419 572.923 C 994.41 572.932 994.401 572.942 994.392 572.951 L 993.89 573.462 C 993.039 574.329 993.04 575.734 993.891 576.6 C 993.993 576.704 994.105 576.797 994.225 576.878 C 996.25 578.254 996.797 581.042 995.445 583.104 C 995.284 583.349 995.099 583.578 994.894 583.787 L 994.392 584.298 C 994.183 584.511 993.899 584.63 993.604 584.63 Z" stroke-linecap="round" />
</g>
		<g transform="matrix(1 0 0 1 280.29 155.92)" clip-path="url(#CLIPPATH_365)"  >
<clipPath id="CLIPPATH_365" >
	<rect transform="matrix(1 0 0 1 -6.79 0.68)" id="clip1_2923_51892" clip-path="url(#undefined)" x="-9.5" y="-7.5" rx="0" ry="0" width="19" height="15" />
</clipPath>
<path style="stroke: none; stroke-width: 1; stroke-dasharray: none; stroke-linecap: butt; stroke-dashoffset: 0; stroke-linejoin: miter; stroke-miterlimit: 4; fill: rgb(199,204,209); fill-rule: nonzero; opacity: 1;" vector-effect="non-scaling-stroke"  transform=" translate(-1000.29, -577.82)" d="M 1000.29 584.63 C 999.676 584.63 999.178 584.122 999.178 583.495 C 999.178 583.195 999.295 582.906 999.504 582.693 L 1000.01 582.183 C 1000.86 581.316 1000.86 579.91 1000 579.044 C 999.903 578.94 999.791 578.847 999.671 578.766 C 997.646 577.39 997.099 574.603 998.451 572.541 C 998.612 572.295 998.797 572.066 999.002 571.857 L 999.504 571.346 C 999.932 570.896 1000.64 570.883 1001.08 571.319 C 1001.52 571.754 1001.54 572.472 1001.11 572.923 C 1001.1 572.933 1001.09 572.942 1001.08 572.951 L 1000.58 573.461 C 999.727 574.329 999.728 575.734 1000.58 576.6 C 1000.68 576.704 1000.79 576.797 1000.91 576.878 C 1002.94 578.254 1003.48 581.042 1002.13 583.104 C 1001.97 583.349 1001.79 583.578 1001.58 583.787 L 1001.08 584.298 C 1000.87 584.511 1000.59 584.63 1000.29 584.63 Z" stroke-linecap="round" />
</g>
		<g transform="matrix(1 0 0 1 266.92 155.92)" clip-path="url(#CLIPPATH_366)"  >
<clipPath id="CLIPPATH_366" >
	<rect transform="matrix(1 0 0 1 6.58 0.69)" id="clip1_2923_51892" clip-path="url(#undefined)" x="-9.5" y="-7.5" rx="0" ry="0" width="19" height="15" />
</clipPath>
<path style="stroke: none; stroke-width: 1; stroke-dasharray: none; stroke-linecap: butt; stroke-dashoffset: 0; stroke-linejoin: miter; stroke-miterlimit: 4; fill: rgb(199,204,209); fill-rule: nonzero; opacity: 1;" vector-effect="non-scaling-stroke"  transform=" translate(-986.92, -577.81)" d="M 986.916 584.63 C 986.3 584.63 985.801 584.122 985.801 583.495 C 985.801 583.195 985.919 582.906 986.128 582.693 L 986.629 582.183 C 987.481 581.316 987.48 579.91 986.628 579.044 C 986.526 578.94 986.415 578.847 986.295 578.766 C 984.269 577.39 983.723 574.603 985.075 572.541 C 985.236 572.295 985.421 572.066 985.626 571.857 L 986.128 571.346 C 986.555 570.896 987.261 570.883 987.704 571.318 C 988.147 571.754 988.159 572.472 987.731 572.923 C 987.722 572.932 987.713 572.942 987.704 572.951 L 987.202 573.462 C 986.351 574.329 986.352 575.734 987.203 576.6 C 987.305 576.704 987.417 576.797 987.537 576.878 C 989.562 578.254 990.109 581.042 988.757 583.104 C 988.596 583.349 988.411 583.578 988.206 583.787 L 987.704 584.298 C 987.495 584.511 987.212 584.63 986.916 584.63 Z" stroke-linecap="round" />
</g>
		<g transform="matrix(1 0 0 1 273.4 198.58)" clip-path="url(#CLIPPATH_367)"  >
<clipPath id="CLIPPATH_367" >
	<rect transform="matrix(1 0 0 1 -273.4 -236.48)" id="clip0_2923_51892" x="-720" y="-384" rx="0" ry="0" width="1440" height="768" />
</clipPath>
<path style="stroke: none; stroke-width: 1; stroke-dasharray: none; stroke-linecap: butt; stroke-dashoffset: 0; stroke-linejoin: miter; stroke-miterlimit: 4; fill: rgb(62,25,12); fill-rule: nonzero; opacity: 1;" vector-effect="non-scaling-stroke"  transform=" translate(-993.4, -620.48)" d="M 992.76 616.95 L 994.05 616.95 L 994.05 624 L 992.76 624 L 992.76 616.95 Z" stroke-linecap="round" />
</g>
		<g transform="matrix(1 0 0 1 273.39 247.46)" clip-path="url(#CLIPPATH_368)"  >
<clipPath id="CLIPPATH_368" >
	<rect transform="matrix(1 0 0 1 -273.39 -285.36)" id="clip0_2923_51892" x="-720" y="-384" rx="0" ry="0" width="1440" height="768" />
</clipPath>
<path style="stroke: none; stroke-width: 1; stroke-dasharray: none; stroke-linecap: butt; stroke-dashoffset: 0; stroke-linejoin: miter; stroke-miterlimit: 4; fill: rgb(62,25,12); fill-rule: nonzero; opacity: 1;" vector-effect="non-scaling-stroke"  transform=" translate(-993.39, -669.36)" d="M 980.96 672.09 C 980.267 672.09 979.66 671.943 979.14 671.65 C 978.627 671.35 978.23 670.927 977.95 670.38 C 977.677 669.833 977.54 669.197 977.54 668.47 C 977.54 667.743 977.677 667.11 977.95 666.57 C 978.23 666.023 978.627 665.603 979.14 665.31 C 979.66 665.01 980.267 664.86 980.96 664.86 C 981.433 664.86 981.88 664.933 982.3 665.08 C 982.72 665.227 983.073 665.433 983.36 665.7 L 982.93 666.64 C 982.61 666.387 982.293 666.203 981.98 666.09 C 981.667 665.97 981.333 665.91 980.98 665.91 C 980.3 665.91 979.773 666.13 979.4 666.57 C 979.033 667.01 978.85 667.643 978.85 668.47 C 978.85 669.303 979.033 669.94 979.4 670.38 C 979.773 670.82 980.3 671.04 980.98 671.04 C 981.333 671.04 981.667 670.983 981.98 670.87 C 982.293 670.75 982.61 670.563 982.93 670.31 L 983.36 671.25 C 983.073 671.517 982.72 671.723 982.3 671.87 C 981.88 672.017 981.433 672.09 980.96 672.09 Z M 986.56 672.08 C 986.06 672.08 985.62 671.977 985.24 671.77 C 984.866 671.563 984.576 671.267 984.37 670.88 C 984.163 670.493 984.06 670.043 984.06 669.53 C 984.06 669.017 984.163 668.57 984.37 668.19 C 984.576 667.803 984.866 667.507 985.24 667.3 C 985.62 667.093 986.06 666.99 986.56 666.99 C 987.06 666.99 987.496 667.093 987.87 667.3 C 988.25 667.507 988.54 667.803 988.74 668.19 C 988.946 668.57 989.05 669.017 989.05 669.53 C 989.05 670.043 988.946 670.493 988.74 670.88 C 988.54 671.267 988.25 671.563 987.87 671.77 C 987.496 671.977 987.06 672.08 986.56 672.08 Z M 986.55 671.11 C 986.956 671.11 987.266 670.977 987.48 670.71 C 987.693 670.443 987.8 670.05 987.8 669.53 C 987.8 669.017 987.693 668.627 987.48 668.36 C 987.266 668.087 986.96 667.95 986.56 667.95 C 986.16 667.95 985.85 668.087 985.63 668.36 C 985.416 668.627 985.31 669.017 985.31 669.53 C 985.31 670.05 985.416 670.443 985.63 670.71 C 985.843 670.977 986.15 671.11 986.55 671.11 Z M 994.802 664.95 L 994.802 672 L 993.562 672 L 993.562 671.21 C 993.415 671.483 993.202 671.697 992.922 671.85 C 992.648 672.003 992.335 672.08 991.982 672.08 C 991.562 672.08 991.185 671.973 990.852 671.76 C 990.525 671.547 990.268 671.247 990.082 670.86 C 989.902 670.467 989.812 670.017 989.812 669.51 C 989.812 669.003 989.902 668.56 990.082 668.18 C 990.268 667.8 990.525 667.507 990.852 667.3 C 991.178 667.093 991.555 666.99 991.982 666.99 C 992.335 666.99 992.648 667.063 992.922 667.21 C 993.195 667.357 993.405 667.563 993.552 667.83 L 993.552 664.95 L 994.802 664.95 Z M 992.312 671.11 C 992.712 671.11 993.018 670.973 993.232 670.7 C 993.452 670.427 993.562 670.037 993.562 669.53 C 993.562 669.023 993.452 668.637 993.232 668.37 C 993.018 668.097 992.715 667.96 992.322 667.96 C 991.922 667.96 991.612 668.093 991.392 668.36 C 991.172 668.627 991.062 669.01 991.062 669.51 C 991.062 670.017 991.172 670.41 991.392 670.69 C 991.612 670.97 991.918 671.11 992.312 671.11 Z M 996.088 667.11 L 997.338 667.11 L 997.338 672 L 996.088 672 L 996.088 667.11 Z M 997.398 664.84 L 997.398 666.07 L 996.018 666.07 L 996.018 664.84 L 997.398 664.84 Z M 1001.47 666.99 C 1002.05 666.99 1002.49 667.157 1002.78 667.49 C 1003.06 667.823 1003.21 668.327 1003.21 669 L 1003.21 672 L 1001.96 672 L 1001.96 669.07 C 1001.96 668.69 1001.88 668.413 1001.74 668.24 C 1001.6 668.067 1001.37 667.98 1001.07 667.98 C 1000.71 667.98 1000.42 668.093 1000.2 668.32 C 999.983 668.547 999.877 668.85 999.877 669.23 L 999.877 672 L 998.627 672 L 998.627 667.11 L 999.847 667.11 L 999.847 667.84 C 1000.01 667.567 1000.24 667.357 1000.52 667.21 C 1000.8 667.063 1001.11 666.99 1001.47 666.99 Z M 1009.24 667.11 L 1009.24 671.55 C 1009.24 672.317 1009.02 672.897 1008.6 673.29 C 1008.18 673.683 1007.55 673.88 1006.73 673.88 C 1006.3 673.88 1005.89 673.823 1005.5 673.71 C 1005.1 673.603 1004.76 673.45 1004.47 673.25 L 1004.82 672.37 C 1005.42 672.737 1006.05 672.92 1006.7 672.92 C 1007.56 672.92 1008 672.493 1008 671.64 L 1008 671 C 1007.85 671.273 1007.64 671.487 1007.36 671.64 C 1007.08 671.787 1006.76 671.86 1006.4 671.86 C 1005.97 671.86 1005.59 671.76 1005.26 671.56 C 1004.93 671.353 1004.67 671.067 1004.49 670.7 C 1004.3 670.333 1004.21 669.91 1004.21 669.43 C 1004.21 668.95 1004.3 668.527 1004.48 668.16 C 1004.66 667.787 1004.92 667.5 1005.26 667.3 C 1005.59 667.093 1005.97 666.99 1006.4 666.99 C 1006.76 666.99 1007.08 667.067 1007.36 667.22 C 1007.64 667.367 1007.85 667.577 1008 667.85 L 1008 667.11 L 1009.24 667.11 Z M 1006.73 670.89 C 1007.13 670.89 1007.44 670.76 1007.66 670.5 C 1007.88 670.24 1008 669.883 1008 669.43 C 1008 668.97 1007.88 668.61 1007.66 668.35 C 1007.44 668.09 1007.13 667.96 1006.73 667.96 C 1006.33 667.96 1006.02 668.09 1005.8 668.35 C 1005.57 668.61 1005.46 668.97 1005.46 669.43 C 1005.46 669.877 1005.57 670.233 1005.8 670.5 C 1006.02 670.76 1006.33 670.89 1006.73 670.89 Z" stroke-linecap="round" />
</g>
		<g transform="matrix(1 0 0 1 273.5 221.6)" clip-path="url(#CLIPPATH_369)"  >
<clipPath id="CLIPPATH_369" >
	<rect transform="matrix(1 0 0 1 -273.5 -259.5)" id="clip0_2923_51892" x="-720" y="-384" rx="0" ry="0" width="1440" height="768" />
</clipPath>
<path style="stroke: none; stroke-width: 1; stroke-dasharray: none; stroke-linecap: butt; stroke-dashoffset: 0; stroke-linejoin: miter; stroke-miterlimit: 4; fill: rgb(247,217,206); fill-rule: nonzero; opacity: 1;" vector-effect="non-scaling-stroke"  transform=" translate(-993.5, -643.5)" d="M 1004.45 635.878 C 1003.56 634.713 1002.31 633.881 1000.89 633.514 C 999.476 633.146 997.978 633.266 996.637 633.853 C 995.438 634.371 994.368 635.243 993.5 636.402 C 992.632 635.241 991.562 634.368 990.363 633.853 C 989.022 633.266 987.524 633.146 986.107 633.514 C 984.691 633.881 983.439 634.713 982.553 635.878 C 981.618 637.102 981.124 638.633 981.124 640.303 C 981.124 642.707 982.558 645.344 985.385 648.144 C 987.688 650.425 990.41 652.293 991.827 653.204 C 992.327 653.523 992.907 653.693 993.5 653.693 C 994.093 653.693 994.673 653.523 995.173 653.204 C 996.589 652.293 999.312 650.425 1001.62 648.144 C 1004.44 645.345 1005.88 642.707 1005.88 640.303 C 1005.88 638.633 1005.38 637.102 1004.45 635.878 Z" stroke-linecap="round" />
</g>
		<g transform="matrix(1 0 0 1 -272.74 291.37)" clip-path="url(#CLIPPATH_370)"  >
<clipPath id="CLIPPATH_370" >
	<rect transform="matrix(1 0 0 1 272.74 -329.27)" id="clip0_2923_51892" x="-720" y="-384" rx="0" ry="0" width="1440" height="768" />
</clipPath>
<path style="stroke: none; stroke-width: 1; stroke-dasharray: none; stroke-linecap: butt; stroke-dashoffset: 0; stroke-linejoin: miter; stroke-miterlimit: 4; fill: rgb(122,193,67); fill-rule: nonzero; opacity: 1;" vector-effect="non-scaling-stroke"  transform=" translate(-447.26, -713.27)" d="M 438.326 738.263 C 438.326 738.263 477.772 690.3 467.666 681.383 C 457.559 672.465 427.835 715.863 425.457 736.671 C 423.079 757.478 438.326 738.263 438.326 738.263 Z" stroke-linecap="round" />
</g>
		<g transform="matrix(1 0 0 1 -348.48 268.06)" clip-path="url(#CLIPPATH_371)"  >
<clipPath id="CLIPPATH_371" >
	<rect transform="matrix(1 0 0 1 348.48 -305.96)" id="clip0_2923_51892" x="-720" y="-384" rx="0" ry="0" width="1440" height="768" />
</clipPath>
<path style="stroke: none; stroke-width: 1; stroke-dasharray: none; stroke-linecap: butt; stroke-dashoffset: 0; stroke-linejoin: miter; stroke-miterlimit: 4; fill: rgb(94,153,38); fill-rule: nonzero; opacity: 1;" vector-effect="non-scaling-stroke"  transform=" translate(-371.52, -689.96)" d="M 389.192 742.021 C 386.814 739.643 327.959 657.008 342.227 639.173 C 356.495 621.339 404.886 728.269 402.984 736.929 C 401.082 745.588 389.192 742.021 389.192 742.021 Z" stroke-linecap="round" />
</g>
		<g transform="matrix(1 0 0 1 -288.54 265.58)" clip-path="url(#CLIPPATH_372)"  >
<clipPath id="CLIPPATH_372" >
	<rect transform="matrix(1 0 0 1 288.54 -303.47)" id="clip0_2923_51892" x="-720" y="-384" rx="0" ry="0" width="1440" height="768" />
</clipPath>
<path style="stroke: none; stroke-width: 1; stroke-dasharray: none; stroke-linecap: butt; stroke-dashoffset: 0; stroke-linejoin: miter; stroke-miterlimit: 4; fill: rgb(79,135,31); fill-rule: nonzero; opacity: 1;" vector-effect="non-scaling-stroke"  transform=" translate(-431.46, -687.47)" d="M 412.378 740.238 C 412.378 740.238 414.756 635.012 438.535 626.095 C 462.315 617.178 444.405 664.017 438.535 689.96 C 432.666 715.903 422.484 749.966 422.484 749.966 L 412.378 740.238 Z" stroke-linecap="round" />
</g>
		<g transform="matrix(1 0 0 1 -325.45 257.59)" clip-path="url(#CLIPPATH_373)"  >
<clipPath id="CLIPPATH_373" >
	<rect transform="matrix(1 0 0 1 325.45 -295.48)" id="clip0_2923_51892" x="-720" y="-384" rx="0" ry="0" width="1440" height="768" />
</clipPath>
<path style="stroke: none; stroke-width: 1; stroke-dasharray: none; stroke-linecap: butt; stroke-dashoffset: 0; stroke-linejoin: miter; stroke-miterlimit: 4; fill: rgb(122,193,67); fill-rule: nonzero; opacity: 1;" vector-effect="non-scaling-stroke"  transform=" translate(-394.55, -679.48)" d="M 371.951 652.251 C 380.226 671.392 389.691 700.407 401.49 744.369 C 401.987 746.206 402.483 748.071 402.985 749.964 L 422.482 749.964 C 421.161 709.371 420.013 699.816 420.013 699.816 C 418.748 689.273 416.278 674.663 411.19 658.197 C 405.398 639.463 396.055 609.226 383.047 609.001 C 379.809 608.945 376.819 610.758 374.364 613.172 C 371.974 615.514 370.091 618.434 368.98 620.744 C 363.226 632.711 369.472 646.52 371.951 652.251 Z" stroke-linecap="round" />
</g>
		<g transform="matrix(1 0 0 1 -326.94 266.21)" clip-path="url(#CLIPPATH_374)"  >
<clipPath id="CLIPPATH_374" >
	<rect transform="matrix(1 0 0 1 326.94 -304.1)" id="clip0_2923_51892" x="-720" y="-384" rx="0" ry="0" width="1440" height="768" />
</clipPath>
<path style="stroke: none; stroke-width: 1; stroke-dasharray: none; stroke-linecap: butt; stroke-dashoffset: 0; stroke-linejoin: miter; stroke-miterlimit: 4; fill: rgb(103,175,50); fill-rule: nonzero; opacity: 1;" vector-effect="non-scaling-stroke"  transform=" translate(-393.06, -688.1)" d="M 371.951 652.251 C 380.226 671.393 389.691 700.407 401.49 744.369 C 403.205 746.173 405.033 748.085 406.841 749.964 C 413.298 756.679 419.512 763.037 419.512 763.037 L 415.215 749.964 L 412.553 741.867 C 412.394 741.876 385.071 635.804 374.364 613.172 C 371.974 615.515 370.091 618.434 368.98 620.744 C 363.226 632.712 369.472 646.521 371.951 652.251 Z" stroke-linecap="round" />
</g>
		<g transform="matrix(1 0 0 1 -311.03 335.61)" clip-path="url(#CLIPPATH_375)"  >
<clipPath id="CLIPPATH_375" >
	<rect transform="matrix(1 0 0 1 311.03 -373.51)" id="clip0_2923_51892" x="-720" y="-384" rx="0" ry="0" width="1440" height="768" />
</clipPath>
<path style="stroke: none; stroke-width: 1; stroke-dasharray: none; stroke-linecap: butt; stroke-dashoffset: 0; stroke-linejoin: miter; stroke-miterlimit: 4; fill: rgb(226,238,249); fill-rule: nonzero; opacity: 1;" vector-effect="non-scaling-stroke"  transform=" translate(-408.97, -757.51)" d="M 382.611 778.285 C 383.759 779.475 430.809 785.421 436.751 778.285 C 437.083 777.887 437.421 777.39 437.758 776.804 C 443.428 766.945 449.351 732.514 447.266 733.329 C 426.859 741.286 377.302 732.509 371.52 733.329 C 370.976 733.404 370.62 733.854 370.433 734.608 C 368.563 741.853 381.571 777.207 382.611 778.285 Z" stroke-linecap="round" />
</g>
		<g transform="matrix(1 0 0 1 -311.78 320.41)" clip-path="url(#CLIPPATH_376)"  >
<clipPath id="CLIPPATH_376" >
	<rect transform="matrix(1 0 0 1 311.78 -358.3)" id="clip0_2923_51892" x="-720" y="-384" rx="0" ry="0" width="1440" height="768" />
</clipPath>
<path style="stroke: none; stroke-width: 1; stroke-dasharray: none; stroke-linecap: butt; stroke-dashoffset: 0; stroke-linejoin: miter; stroke-miterlimit: 4; fill: rgb(211,227,239); fill-rule: nonzero; opacity: 1;" vector-effect="non-scaling-stroke"  transform=" translate(-408.22, -742.3)" d="M 407.631 744.776 C 424.951 744.776 440.173 742.609 440.42 742.573 C 440.804 742.517 441.07 742.161 441.014 741.776 C 440.959 741.392 440.602 741.126 440.218 741.182 C 439.821 741.24 400.257 746.869 376.311 739.861 C 375.938 739.752 375.548 739.965 375.439 740.338 C 375.33 740.71 375.544 741.101 375.916 741.21 C 385.224 743.934 396.835 744.776 407.631 744.776 Z" stroke-linecap="round" />
</g>
		<g transform="matrix(1 0 0 1 -316 336.28)" clip-path="url(#CLIPPATH_377)"  >
<clipPath id="CLIPPATH_377" >
	<rect transform="matrix(1 0 0 1 316 -374.17)" id="clip0_2923_51892" x="-720" y="-384" rx="0" ry="0" width="1440" height="768" />
</clipPath>
<path style="stroke: none; stroke-width: 1; stroke-dasharray: none; stroke-linecap: butt; stroke-dashoffset: 0; stroke-linejoin: miter; stroke-miterlimit: 4; fill: rgb(211,227,239); fill-rule: nonzero; opacity: 1;" vector-effect="non-scaling-stroke"  transform=" translate(-404, -758.17)" d="M 382.611 778.285 C 383.759 779.475 430.809 785.421 436.751 778.285 C 437.083 777.886 437.421 777.39 437.758 776.804 C 423.949 780.018 391.669 783.678 377.897 751.234 C 375.011 744.43 372.541 738.971 370.433 734.608 C 368.563 741.853 381.571 777.207 382.611 778.285 Z" stroke-linecap="round" />
</g>
		<g transform="matrix(1 0 0 1 -194.34 191.96)" clip-path="url(#CLIPPATH_378)"  >
<clipPath id="CLIPPATH_378" >
	<rect transform="matrix(1 0 0 1 194.34 -229.85)" id="clip0_2923_51892" x="-720" y="-384" rx="0" ry="0" width="1440" height="768" />
</clipPath>
<path style="stroke: none; stroke-width: 1; stroke-dasharray: none; stroke-linecap: butt; stroke-dashoffset: 0; stroke-linejoin: miter; stroke-miterlimit: 4; fill: rgb(247,167,113); fill-rule: nonzero; opacity: 1;" vector-effect="non-scaling-stroke"  transform=" translate(-525.66, -613.85)" d="M 517.75 582.993 L 526.221 582 L 533.573 644.713 L 525.101 645.706 L 517.75 582.993 Z" stroke-linecap="round" />
</g>
		<g transform="matrix(1 0 0 1 -197.65 163.79)" clip-path="url(#CLIPPATH_379)"  >
<clipPath id="CLIPPATH_379" >
	<rect transform="matrix(1 0 0 1 197.65 -201.69)" id="clip0_2923_51892" x="-720" y="-384" rx="0" ry="0" width="1440" height="768" />
</clipPath>
<path style="stroke: none; stroke-width: 1; stroke-dasharray: none; stroke-linecap: butt; stroke-dashoffset: 0; stroke-linejoin: miter; stroke-miterlimit: 4; fill: rgb(75,158,87); fill-rule: nonzero; opacity: 1;" vector-effect="non-scaling-stroke"  transform=" translate(-522.35, -585.69)" d="M 517.745 582.993 L 526.216 582 L 526.964 588.379 L 518.492 589.372 L 517.745 582.993 Z" stroke-linecap="round" />
</g>
		<g transform="matrix(1 0 0 1 -178.15 203.82)" clip-path="url(#CLIPPATH_380)"  >
<clipPath id="CLIPPATH_380" >
	<rect transform="matrix(1 0 0 1 178.15 -241.72)" id="clip0_2923_51892" x="-720" y="-384" rx="0" ry="0" width="1440" height="768" />
</clipPath>
<path style="stroke: none; stroke-width: 1; stroke-dasharray: none; stroke-linecap: butt; stroke-dashoffset: 0; stroke-linejoin: miter; stroke-miterlimit: 4; fill: rgb(230,128,128); fill-rule: nonzero; opacity: 1;" vector-effect="non-scaling-stroke"  transform=" translate(-541.85, -625.72)" d="M 541.026 593.868 L 549.506 594.79 L 542.68 657.563 L 534.2 656.641 L 541.026 593.868 Z" stroke-linecap="round" />
</g>
		<g transform="matrix(1 0 0 1 -175.08 175.63)" clip-path="url(#CLIPPATH_381)"  >
<clipPath id="CLIPPATH_381" >
	<rect transform="matrix(1 0 0 1 175.08 -213.52)" id="clip0_2923_51892" x="-720" y="-384" rx="0" ry="0" width="1440" height="768" />
</clipPath>
<path style="stroke: none; stroke-width: 1; stroke-dasharray: none; stroke-linecap: butt; stroke-dashoffset: 0; stroke-linejoin: miter; stroke-miterlimit: 4; fill: rgb(57,97,150); fill-rule: nonzero; opacity: 1;" vector-effect="non-scaling-stroke"  transform=" translate(-544.92, -597.52)" d="M 541.026 593.868 L 549.506 594.79 L 548.811 601.176 L 540.332 600.253 L 541.026 593.868 Z" stroke-linecap="round" />
</g>
		<g transform="matrix(1 0 0 1 -182.39 229.95)" clip-path="url(#CLIPPATH_382)"  >
<clipPath id="CLIPPATH_382" >
	<rect transform="matrix(1 0 0 1 182.39 -267.85)" id="clip0_2923_51892" x="-720" y="-384" rx="0" ry="0" width="1440" height="768" />
</clipPath>
<path style="stroke: none; stroke-width: 1; stroke-dasharray: none; stroke-linecap: butt; stroke-dashoffset: 0; stroke-linejoin: miter; stroke-miterlimit: 4; fill: rgb(133,104,213); fill-rule: nonzero; opacity: 1;" vector-effect="non-scaling-stroke"  transform=" translate(-537.61, -651.85)" d="M 554.672 678 L 520.549 678 L 515 625.693 L 560.222 625.693 L 554.672 678 Z" stroke-linecap="round" />
</g>
		<g transform="matrix(1 0 0 1 -182.39 229.95)" clip-path="url(#CLIPPATH_383)"  >
<clipPath id="CLIPPATH_383" >
	<rect transform="matrix(1 0 0 1 182.39 -267.85)" id="clip0_2923_51892" x="-720" y="-384" rx="0" ry="0" width="1440" height="768" />
</clipPath>
<path style="stroke: none; stroke-width: 1; stroke-dasharray: none; stroke-linecap: butt; stroke-dashoffset: 0; stroke-linejoin: miter; stroke-miterlimit: 4; fill: rgb(133,104,212); fill-rule: nonzero; opacity: 1;" vector-effect="non-scaling-stroke"  transform=" translate(-537.61, -651.85)" d="M 515 625.693 L 515.102 626.654 L 549.555 626.654 L 544.108 678 L 554.672 678 L 560.222 625.693 L 515 625.693 Z" stroke-linecap="round" />
</g>
		<g transform="matrix(1 0 0 1 -86.66 189.89)" clip-path="url(#CLIPPATH_384)"  >
<clipPath id="CLIPPATH_384" >
	<rect transform="matrix(1 0 0 1 86.66 -227.78)" id="clip0_2923_51892" x="-720" y="-384" rx="0" ry="0" width="1440" height="768" />
</clipPath>
<path style="stroke: none; stroke-width: 1; stroke-dasharray: none; stroke-linecap: butt; stroke-dashoffset: 0; stroke-linejoin: miter; stroke-miterlimit: 4; fill: rgb(206,206,206); fill-rule: nonzero; opacity: 1;" vector-effect="non-scaling-stroke"  transform=" translate(-633.34, -611.78)" d="M 606.059 623.508 C 599.593 623.508 594.333 618.247 594.333 611.782 C 594.333 605.316 599.594 600.057 606.059 600.057 L 672.34 600.057 L 672.34 623.508 L 606.059 623.508 Z" stroke-linecap="round" />
</g>
		<g transform="matrix(1 0 0 1 -86.77 189.89)" clip-path="url(#CLIPPATH_385)"  >
<clipPath id="CLIPPATH_385" >
	<rect transform="matrix(1 0 0 1 86.77 -227.78)" id="clip0_2923_51892" x="-720" y="-384" rx="0" ry="0" width="1440" height="768" />
</clipPath>
<path style="stroke: none; stroke-width: 1; stroke-dasharray: none; stroke-linecap: butt; stroke-dashoffset: 0; stroke-linejoin: miter; stroke-miterlimit: 4; fill: rgb(255,255,255); fill-rule: nonzero; opacity: 1;" vector-effect="non-scaling-stroke"  transform=" translate(-633.23, -611.78)" d="M 676.179 627.565 L 606.059 627.565 C 597.342 627.565 590.277 620.499 590.277 611.783 C 590.277 603.066 597.343 596.001 606.059 596.001 L 676.179 596.001 L 676.179 627.565 Z" stroke-linecap="round" />
</g>
		<g transform="matrix(1 0 0 1 -86.66 189.89)" clip-path="url(#CLIPPATH_386)"  >
<clipPath id="CLIPPATH_386" >
	<rect transform="matrix(1 0 0 1 86.66 -227.78)" id="clip0_2923_51892" x="-720" y="-384" rx="0" ry="0" width="1440" height="768" />
</clipPath>
<path style="stroke: rgb(177,180,186); stroke-width: 4; stroke-dasharray: none; stroke-linecap: round; stroke-dashoffset: 0; stroke-linejoin: round; stroke-miterlimit: 10; fill: none; fill-rule: nonzero; opacity: 0.24;" vector-effect="non-scaling-stroke"  transform=" translate(-633.34, -611.78)" d="M 601.771 608.145 L 672.34 608.145 M 601.771 615.306 L 672.34 615.306 M 606.059 623.508 C 599.593 623.508 594.333 618.247 594.333 611.782 C 594.333 605.316 599.594 600.057 606.059 600.057 L 672.34 600.057 L 672.34 623.508 L 606.059 623.508 Z" stroke-linecap="round" />
</g>
		<g transform="matrix(1 0 0 1 -86.77 189.89)" clip-path="url(#CLIPPATH_387)"  >
<clipPath id="CLIPPATH_387" >
	<rect transform="matrix(1 0 0 1 86.77 -227.78)" id="clip0_2923_51892" x="-720" y="-384" rx="0" ry="0" width="1440" height="768" />
</clipPath>
<path style="stroke: none; stroke-width: 1; stroke-dasharray: none; stroke-linecap: butt; stroke-dashoffset: 0; stroke-linejoin: miter; stroke-miterlimit: 4; fill: rgb(215,87,87); fill-rule: nonzero; opacity: 1;" vector-effect="non-scaling-stroke"  transform=" translate(-633.23, -611.78)" d="M 606.059 623.508 C 599.593 623.508 594.334 618.247 594.334 611.782 C 594.334 605.316 599.594 600.057 606.059 600.057 L 673.475 600.057 L 676.179 596 L 606.059 596 C 597.342 596 590.277 603.066 590.277 611.782 C 590.277 620.498 597.343 627.564 606.059 627.564 L 676.179 627.564 L 673.475 623.507 L 606.059 623.508 Z" stroke-linecap="round" />
</g>
		<g transform="matrix(1 0 0 1 -115.23 218.7)" clip-path="url(#CLIPPATH_388)"  >
<clipPath id="CLIPPATH_388" >
	<rect transform="matrix(1 0 0 1 115.23 -256.6)" id="clip0_2923_51892" x="-720" y="-384" rx="0" ry="0" width="1440" height="768" />
</clipPath>
<path style="stroke: none; stroke-width: 1; stroke-dasharray: none; stroke-linecap: butt; stroke-dashoffset: 0; stroke-linejoin: miter; stroke-miterlimit: 4; fill: rgb(57,68,96); fill-rule: nonzero; opacity: 1;" vector-effect="non-scaling-stroke"  transform=" translate(-604.77, -640.6)" d="M 668.967 653.633 L 540.571 653.633 C 539.359 653.633 538.196 653.152 537.339 652.294 C 536.482 651.437 536 650.274 536 649.062 L 536 632.136 C 536 630.923 536.482 629.761 537.339 628.903 C 538.196 628.046 539.359 627.564 540.571 627.564 L 668.967 627.564 C 670.179 627.564 671.342 628.046 672.199 628.903 C 673.056 629.761 673.538 630.923 673.538 632.136 L 673.538 649.061 C 673.538 649.662 673.42 650.256 673.19 650.811 C 672.96 651.366 672.624 651.87 672.199 652.294 C 671.775 652.719 671.271 653.055 670.716 653.285 C 670.161 653.515 669.567 653.633 668.967 653.633 Z" stroke-linecap="round" />
</g>
		<g transform="matrix(1 0 0 1 -89.25 244.65)" clip-path="url(#CLIPPATH_389)"  >
<clipPath id="CLIPPATH_389" >
	<rect transform="matrix(1 0 0 1 89.25 -282.55)" id="clip0_2923_51892" x="-720" y="-384" rx="0" ry="0" width="1440" height="768" />
</clipPath>
<path style="stroke: none; stroke-width: 1; stroke-dasharray: none; stroke-linecap: butt; stroke-dashoffset: 0; stroke-linejoin: miter; stroke-miterlimit: 4; fill: rgb(223,223,223); fill-rule: nonzero; opacity: 1;" vector-effect="non-scaling-stroke"  transform=" translate(-630.75, -666.55)" d="M 705.108 658.867 L 556.399 658.867 C 557.266 661.065 557.772 663.705 557.772 666.546 C 557.772 669.388 557.266 672.028 556.399 674.226 L 705.108 674.226 C 704.241 672.028 703.735 669.388 703.735 666.546 C 703.736 663.705 704.241 661.065 705.108 658.867 Z" stroke-linecap="round" />
</g>
		<g transform="matrix(1 0 0 1 -89.24 234.93)" clip-path="url(#CLIPPATH_390)"  >
<clipPath id="CLIPPATH_390" >
	<rect transform="matrix(1 0 0 1 89.24 -272.82)" id="clip0_2923_51892" x="-720" y="-384" rx="0" ry="0" width="1440" height="768" />
</clipPath>
<path style="stroke: none; stroke-width: 1; stroke-dasharray: none; stroke-linecap: butt; stroke-dashoffset: 0; stroke-linejoin: miter; stroke-miterlimit: 4; fill: rgb(80,77,182); fill-rule: nonzero; opacity: 1;" vector-effect="non-scaling-stroke"  transform=" translate(-630.76, -656.82)" d="M 552.371 654.78 L 709.141 654.78 L 709.141 658.867 L 552.371 658.867 L 552.371 654.78 Z" stroke-linecap="round" />
</g>
		<g transform="matrix(1 0 0 1 -89.24 254.37)" clip-path="url(#CLIPPATH_391)"  >
<clipPath id="CLIPPATH_391" >
	<rect transform="matrix(1 0 0 1 89.24 -292.27)" id="clip0_2923_51892" x="-720" y="-384" rx="0" ry="0" width="1440" height="768" />
</clipPath>
<path style="stroke: none; stroke-width: 1; stroke-dasharray: none; stroke-linecap: butt; stroke-dashoffset: 0; stroke-linejoin: miter; stroke-miterlimit: 4; fill: rgb(246,249,253); fill-rule: nonzero; opacity: 1;" vector-effect="non-scaling-stroke"  transform=" translate(-630.76, -676.27)" d="M 552.371 674.226 L 709.141 674.226 L 709.141 678.312 L 552.371 678.312 L 552.371 674.226 Z" stroke-linecap="round" />
</g>
		<g transform="matrix(1 0 0 1 -89.24 254.37)" clip-path="url(#CLIPPATH_392)"  >
<clipPath id="CLIPPATH_392" >
	<rect transform="matrix(1 0 0 1 89.24 -292.27)" id="clip0_2923_51892" x="-720" y="-384" rx="0" ry="0" width="1440" height="768" />
</clipPath>
<path style="stroke: none; stroke-width: 1; stroke-dasharray: none; stroke-linecap: butt; stroke-dashoffset: 0; stroke-linejoin: miter; stroke-miterlimit: 4; fill: rgb(80,77,182); fill-rule: nonzero; opacity: 1;" vector-effect="non-scaling-stroke"  transform=" translate(-630.76, -676.27)" d="M 552.371 674.226 L 709.141 674.226 L 709.141 678.312 L 552.371 678.312 L 552.371 674.226 Z" stroke-linecap="round" />
</g>
		<g transform="matrix(1 0 0 1 -89.25 244.65)" clip-path="url(#CLIPPATH_393)"  >
<clipPath id="CLIPPATH_393" >
	<rect transform="matrix(1 0 0 1 89.25 -282.55)" id="clip0_2923_51892" x="-720" y="-384" rx="0" ry="0" width="1440" height="768" />
</clipPath>
<path style="stroke: rgb(236,237,238); stroke-width: 4; stroke-dasharray: none; stroke-linecap: round; stroke-dashoffset: 0; stroke-linejoin: round; stroke-miterlimit: 10; fill: none; fill-rule: nonzero; opacity: 1;" vector-effect="non-scaling-stroke"  transform=" translate(-630.75, -666.55)" d="M 558.057 663.557 L 703.736 663.557 M 558.057 668.976 L 703.736 668.976 M 705.108 658.867 L 556.399 658.867 C 557.266 661.065 557.772 663.705 557.772 666.546 C 557.772 669.388 557.266 672.028 556.399 674.226 L 705.108 674.226 C 704.241 672.028 703.735 669.388 703.735 666.546 C 703.736 663.705 704.241 661.065 705.108 658.867 Z" stroke-linecap="round" />
</g>
		<g transform="matrix(1 0 0 1 -163.91 215.99)" clip-path="url(#CLIPPATH_394)"  >
<linearGradient id="SVGID_paint0_linear_2923_51892_3" gradientUnits="userSpaceOnUse" gradientTransform="matrix(1 0 0 1 0 0)"  x1="548.237" y1="631.01" x2="559.329" y2="640.469">
<stop offset="0%" style="stop-color:rgb(90,159,212);stop-opacity: 1"/>
<stop offset="100%" style="stop-color:rgb(48,105,152);stop-opacity: 1"/>
</linearGradient>
<clipPath id="CLIPPATH_394" >
	<rect transform="matrix(1 0 0 1 2.59 2.63)" id="clip2_2923_51892" clip-path="url(#undefined)" x="-10.079" y="-10.079" rx="0" ry="0" width="20.158" height="20.158" />
</clipPath>
<path style="stroke: none; stroke-width: 1; stroke-dasharray: none; stroke-linecap: butt; stroke-dashoffset: 0; stroke-linejoin: miter; stroke-miterlimit: 4; fill: url(#SVGID_paint0_linear_2923_51892_3); fill-rule: nonzero; opacity: 1;" vector-effect="non-scaling-stroke"  transform=" translate(-556.09, -637.89)" d="M 558.559 630.437 C 557.737 630.441 556.952 630.511 556.261 630.633 C 554.226 630.992 553.856 631.745 553.856 633.133 L 553.856 634.966 L 558.665 634.966 L 558.665 635.576 L 553.856 635.576 L 552.052 635.576 C 550.654 635.576 549.43 636.417 549.047 638.015 C 548.606 639.846 548.586 640.99 549.047 642.902 C 549.389 644.326 550.205 645.34 551.603 645.34 L 553.257 645.34 L 553.257 643.143 C 553.257 641.556 554.63 640.156 556.261 640.156 L 561.064 640.156 C 562.401 640.156 563.469 639.055 563.469 637.712 L 563.469 633.133 C 563.469 631.829 562.369 630.85 561.064 630.633 C 560.238 630.495 559.381 630.433 558.559 630.437 Z M 555.958 631.911 C 556.455 631.911 556.861 632.323 556.861 632.83 C 556.861 633.335 556.455 633.744 555.958 633.744 C 555.46 633.744 555.056 633.335 555.056 632.83 C 555.056 632.323 555.46 631.911 555.958 631.911 Z" stroke-linecap="round" />
</g>
		<g transform="matrix(1 0 0 1 -158.75 221.19)" clip-path="url(#CLIPPATH_395)"  >
<linearGradient id="SVGID_paint1_linear_2923_51892_4" gradientUnits="userSpaceOnUse" gradientTransform="matrix(1 0 0 1 0 0)"  x1="563.502" y1="646.348" x2="559.525" y2="640.77">
<stop offset="0%" style="stop-color:rgb(255,212,59);stop-opacity: 1"/>
<stop offset="100%" style="stop-color:rgb(255,232,115);stop-opacity: 1"/>
</linearGradient>
<clipPath id="CLIPPATH_395" >
	<rect transform="matrix(1 0 0 1 -2.57 -2.57)" id="clip2_2923_51892" clip-path="url(#undefined)" x="-10.079" y="-10.079" rx="0" ry="0" width="20.158" height="20.158" />
</clipPath>
<path style="stroke: none; stroke-width: 1; stroke-dasharray: none; stroke-linecap: butt; stroke-dashoffset: 0; stroke-linejoin: miter; stroke-miterlimit: 4; fill: url(#SVGID_paint1_linear_2923_51892_4); fill-rule: nonzero; opacity: 1;" vector-effect="non-scaling-stroke"  transform=" translate(-561.25, -643.09)" d="M 564.069 635.576 L 564.069 637.712 C 564.069 639.367 562.665 640.761 561.064 640.761 L 556.261 640.761 C 554.945 640.761 553.856 641.887 553.856 643.205 L 553.856 647.784 C 553.856 649.087 554.99 649.854 556.261 650.228 C 557.783 650.675 559.243 650.756 561.064 650.228 C 562.275 649.877 563.469 649.172 563.469 647.784 L 563.469 645.951 L 558.665 645.951 L 558.665 645.34 L 563.469 645.34 L 565.874 645.34 C 567.271 645.34 567.792 644.365 568.278 642.902 C 568.78 641.395 568.759 639.947 568.278 638.014 C 567.933 636.623 567.273 635.576 565.874 635.576 L 564.069 635.576 L 564.069 635.576 Z M 561.367 647.173 C 561.866 647.173 562.27 647.581 562.27 648.087 C 562.27 648.593 561.866 649.006 561.367 649.006 C 560.87 649.006 560.465 648.593 560.465 648.087 C 560.465 647.581 560.87 647.173 561.367 647.173 Z" stroke-linecap="round" />
</g>
		<g transform="matrix(1 0 0 1 -79.87 169.08)" clip-path="url(#CLIPPATH_396)"  >
<clipPath id="CLIPPATH_396" >
	<rect transform="matrix(1 0 0 1 79.87 -206.98)" id="clip0_2923_51892" x="-720" y="-384" rx="0" ry="0" width="1440" height="768" />
</clipPath>
<path style="stroke: none; stroke-width: 1; stroke-dasharray: none; stroke-linecap: butt; stroke-dashoffset: 0; stroke-linejoin: miter; stroke-miterlimit: 4; fill: rgb(31,57,105); fill-rule: nonzero; opacity: 0.28;" vector-effect="non-scaling-stroke"  transform=" translate(-640.13, -590.98)" d="M 632 570.334 L 648.265 570.334 L 648.265 611.621 L 632 611.621 L 632 570.334 Z" stroke-linecap="round" />
</g>
		<g transform="matrix(1 0 0 1 -71.74 203.9)" clip-path="url(#CLIPPATH_397)"  >
<clipPath id="CLIPPATH_397" >
	<rect transform="matrix(1 0 0 1 71.74 -241.8)" id="clip0_2923_51892" x="-720" y="-384" rx="0" ry="0" width="1440" height="768" />
</clipPath>
<path style="stroke: none; stroke-width: 1; stroke-dasharray: none; stroke-linecap: butt; stroke-dashoffset: 0; stroke-linejoin: miter; stroke-miterlimit: 4; fill: rgb(31,57,105); fill-rule: nonzero; opacity: 0.28;" vector-effect="non-scaling-stroke"  transform=" translate(-648.26, -625.8)" d="M 658.55 611.621 L 632 611.621 L 632 624.883 C 632 633.217 638.756 639.972 647.088 639.972 L 664.518 639.972 C 664.52 639.894 664.529 639.819 664.529 639.74 L 664.529 617.6 C 664.529 616.015 663.899 614.494 662.778 613.372 C 661.657 612.251 660.136 611.621 658.55 611.621 Z" stroke-linecap="round" />
</g>
		<g transform="matrix(1 0 0 1 68.53 231.78)" clip-path="url(#CLIPPATH_398)"  >
<clipPath id="CLIPPATH_398" >
	<rect transform="matrix(1 0 0 1 -68.53 -269.68)" id="clip0_2923_51892" x="-720" y="-384" rx="0" ry="0" width="1440" height="768" />
</clipPath>
<path style="stroke: none; stroke-width: 1; stroke-dasharray: none; stroke-linecap: butt; stroke-dashoffset: 0; stroke-linejoin: miter; stroke-miterlimit: 4; fill: rgb(191,207,226); fill-rule: nonzero; opacity: 1;" vector-effect="non-scaling-stroke"  transform=" translate(-788.53, -653.68)" d="M 813.047 659.12 L 810.381 629.359 L 766.687 629.359 L 764.022 659.12 C 763.402 666.033 759.242 672.656 752.722 677.936 L 752.714 678 L 824.355 678 L 824.347 677.936 C 817.826 672.656 813.666 666.033 813.047 659.12 Z" stroke-linecap="round" />
</g>
		<g transform="matrix(1 0 0 1 68.31 216.58)" clip-path="url(#CLIPPATH_399)"  >
<clipPath id="CLIPPATH_399" >
	<rect transform="matrix(1 0 0 1 -68.31 -254.48)" id="clip0_2923_51892" x="-720" y="-384" rx="0" ry="0" width="1440" height="768" />
</clipPath>
<path style="stroke: rgb(31,57,105); stroke-width: 4; stroke-dasharray: none; stroke-linecap: round; stroke-dashoffset: 0; stroke-linejoin: round; stroke-miterlimit: 10; fill: rgb(31,57,105); fill-rule: nonzero; opacity: 0.28;" vector-effect="non-scaling-stroke"  transform=" translate(-788.31, -638.48)" d="M 768.122 629.632 L 766.644 647.319 L 809.978 647.319 L 808.5 629.632 L 768.122 629.632 Z" stroke-linecap="round" />
</g>
		<g transform="matrix(1 0 0 1 68.54 110.18)" clip-path="url(#CLIPPATH_400)"  >
<clipPath id="CLIPPATH_400" >
	<rect transform="matrix(1 0 0 1 -68.54 -148.08)" id="clip0_2923_51892" x="-720" y="-384" rx="0" ry="0" width="1440" height="768" />
</clipPath>
<path style="stroke: none; stroke-width: 1; stroke-dasharray: none; stroke-linecap: butt; stroke-dashoffset: 0; stroke-linejoin: miter; stroke-miterlimit: 4; fill: rgb(255,255,255); fill-rule: nonzero; opacity: 1;" vector-effect="non-scaling-stroke"  transform=" translate(-788.54, -532.08)" d="M 928.266 633.782 L 648.803 633.782 C 642.942 633.782 638.191 629.03 638.191 623.169 L 638.191 440.988 C 638.191 435.127 642.942 430.375 648.803 430.375 L 928.266 430.375 C 934.127 430.375 938.879 435.127 938.879 440.988 L 938.879 623.169 C 938.879 629.031 934.127 633.782 928.266 633.782 Z" stroke-linecap="round" />
</g>
		<g transform="matrix(1 0 0 1 68.54 110.18)" clip-path="url(#CLIPPATH_401)"  >
<linearGradient id="SVGID_paint2_linear_2923_51892_5" gradientUnits="userSpaceOnUse" gradientTransform="matrix(1 0 0 1 0 0)"  x1="788.535" y1="430.375" x2="788.535" y2="633.782">
<stop offset="0%" style="stop-color:rgb(209,224,242);stop-opacity: 1"/>
<stop offset="100%" style="stop-color:rgb(179,196,217);stop-opacity: 1"/>
</linearGradient>
<clipPath id="CLIPPATH_401" >
	<rect transform="matrix(1 0 0 1 -68.54 -148.08)" id="clip0_2923_51892" x="-720" y="-384" rx="0" ry="0" width="1440" height="768" />
</clipPath>
<path style="stroke: none; stroke-width: 1; stroke-dasharray: none; stroke-linecap: butt; stroke-dashoffset: 0; stroke-linejoin: miter; stroke-miterlimit: 4; fill: url(#SVGID_paint2_linear_2923_51892_5); fill-rule: nonzero; opacity: 1;" vector-effect="non-scaling-stroke"  transform=" translate(-788.54, -532.08)" d="M 928.266 633.782 L 648.803 633.782 C 642.942 633.782 638.191 629.03 638.191 623.169 L 638.191 440.988 C 638.191 435.127 642.942 430.375 648.803 430.375 L 928.266 430.375 C 934.127 430.375 938.879 435.127 938.879 440.988 L 938.879 623.169 C 938.879 629.031 934.127 633.782 928.266 633.782 Z" stroke-linecap="round" />
</g>
		<g transform="matrix(1 0 0 1 68.53 100.71)" clip-path="url(#CLIPPATH_402)"  >
<clipPath id="CLIPPATH_402" >
	<rect transform="matrix(1 0 0 1 -68.53 -138.61)" id="clip0_2923_51892" x="-720" y="-384" rx="0" ry="0" width="1440" height="768" />
</clipPath>
<path style="stroke: none; stroke-width: 1; stroke-dasharray: none; stroke-linecap: butt; stroke-dashoffset: 0; stroke-linejoin: miter; stroke-miterlimit: 4; fill: rgb(246,249,253); fill-rule: nonzero; opacity: 1;" vector-effect="non-scaling-stroke"  transform=" translate(-788.53, -522.61)" d="M 923.844 445.409 L 923.844 599.813 L 653.225 599.813 L 653.225 445.409 L 923.844 445.409 Z" stroke-linecap="round" />
</g>
		<g transform="matrix(1 0 0 1 11 89.6)" clip-path="url(#CLIPPATH_403)"  >
<clipPath id="CLIPPATH_403" >
	<rect transform="matrix(1 0 0 1 -11 -127.5)" id="clip0_2923_51892" x="-720" y="-384" rx="0" ry="0" width="1440" height="768" />
</clipPath>
<path style="stroke: none; stroke-width: 1; stroke-dasharray: none; stroke-linecap: butt; stroke-dashoffset: 0; stroke-linejoin: miter; stroke-miterlimit: 4; fill: rgb(7,19,35); fill-rule: nonzero; opacity: 0.28;" vector-effect="non-scaling-stroke"  transform=" translate(-731, -511.5)" d="M 663 463 L 663 554.706 C 663 556.11 663.559 557.457 664.554 558.45 C 665.549 559.442 666.898 560 668.305 560 L 793.695 560 C 795.102 560 796.451 559.442 797.446 558.45 C 798.441 557.457 799 556.11 799 554.706 L 799 463 L 663 463 Z" stroke-linecap="round" />
</g>
		<g transform="matrix(1 0 0 1 68.53 194.82)" clip-path="url(#CLIPPATH_404)"  >
<clipPath id="CLIPPATH_404" >
	<rect transform="matrix(1 0 0 1 -68.53 -232.72)" id="clip0_2923_51892" x="-720" y="-384" rx="0" ry="0" width="1440" height="768" />
</clipPath>
<path style="stroke: rgb(31,57,105); stroke-width: 4; stroke-dasharray: none; stroke-linecap: round; stroke-dashoffset: 0; stroke-linejoin: round; stroke-miterlimit: 10; fill: none; fill-rule: nonzero; opacity: 1;" vector-effect="non-scaling-stroke"  transform=" translate(-788.53, -616.72)" d="M 776.643 616.715 L 800.426 616.715" stroke-linecap="round" />
</g>
		<g transform="matrix(1 0 0 1 164.5 106.6)" clip-path="url(#CLIPPATH_405)"  >
<clipPath id="CLIPPATH_405" >
	<rect transform="matrix(1 0 0 1 -164.5 -144.5)" id="clip0_2923_51892" x="-720" y="-384" rx="0" ry="0" width="1440" height="768" />
</clipPath>
<path style="stroke: none; stroke-width: 1; stroke-dasharray: none; stroke-linecap: butt; stroke-dashoffset: 0; stroke-linejoin: miter; stroke-miterlimit: 4; fill: rgb(31,57,105); fill-rule: nonzero; opacity: 0.28;" vector-effect="non-scaling-stroke"  transform=" translate(-884.5, -528.5)" d="M 928.88 582 L 840.12 582 C 838.497 582 836.94 581.351 835.793 580.196 C 834.645 579.04 834 577.473 834 575.839 L 834 481.161 C 834 479.527 834.645 477.96 835.793 476.804 C 836.94 475.649 838.497 475 840.12 475 L 928.88 475 C 930.503 475 932.06 475.649 933.207 476.804 C 934.355 477.96 935 479.527 935 481.161 L 935 575.839 C 935 577.473 934.355 579.04 933.207 580.196 C 932.06 581.351 930.503 582 928.88 582 Z" stroke-linecap="round" />
</g>
		<g transform="matrix(1 0 0 1 41.61 55.75)" clip-path="url(#CLIPPATH_406)"  >
<clipPath id="CLIPPATH_406" >
	<rect transform="matrix(1 0 0 1 -41.61 -93.64)" id="clip0_2923_51892" x="-720" y="-384" rx="0" ry="0" width="1440" height="768" />
</clipPath>
<path style="stroke: none; stroke-width: 1; stroke-dasharray: none; stroke-linecap: butt; stroke-dashoffset: 0; stroke-linejoin: miter; stroke-miterlimit: 4; fill: rgb(17,29,45); fill-rule: nonzero; opacity: 1;" vector-effect="non-scaling-stroke"  transform=" translate(-761.61, -477.64)" d="M 845.212 550.29 L 678 550.29 C 676.123 550.29 674.324 549.544 672.997 548.218 C 671.67 546.891 670.925 545.091 670.925 543.215 L 670.925 412.075 C 670.925 410.199 671.67 408.399 672.997 407.072 C 674.324 405.745 676.123 405 678 405 L 845.211 405 C 847.087 405 848.887 405.745 850.214 407.072 C 851.54 408.399 852.286 410.199 852.286 412.075 L 852.286 543.216 C 852.286 544.145 852.103 545.065 851.747 545.923 C 851.392 546.781 850.871 547.561 850.214 548.218 C 849.557 548.875 848.777 549.396 847.919 549.752 C 847.061 550.107 846.141 550.29 845.212 550.29 Z" stroke-linecap="round" />
</g>
		<g transform="matrix(1 0 0 1 41.61 -6.61)" clip-path="url(#CLIPPATH_407)"  >
<clipPath id="CLIPPATH_407" >
	<rect transform="matrix(1 0 0 1 -41.61 -31.29)" id="clip0_2923_51892" x="-720" y="-384" rx="0" ry="0" width="1440" height="768" />
</clipPath>
<path style="stroke: none; stroke-width: 1; stroke-dasharray: none; stroke-linecap: butt; stroke-dashoffset: 0; stroke-linejoin: miter; stroke-miterlimit: 4; fill: rgb(231,234,239); fill-rule: nonzero; opacity: 1;" vector-effect="non-scaling-stroke"  transform=" translate(-761.61, -415.29)" d="M 852.287 425.574 L 670.925 425.574 L 670.925 412.075 C 670.925 410.199 671.67 408.399 672.997 407.072 C 674.324 405.745 676.123 405 678 405 L 845.211 405 C 847.087 405 848.887 405.745 850.213 407.072 C 851.54 408.399 852.286 410.199 852.286 412.075 L 852.287 425.574 Z" stroke-linecap="round" />
</g>
		<g transform="matrix(1 0 0 1 -31.32 -6.61)" clip-path="url(#CLIPPATH_408)"  >
<clipPath id="CLIPPATH_408" >
	<rect transform="matrix(1 0 0 1 31.32 -31.29)" id="clip0_2923_51892" x="-720" y="-384" rx="0" ry="0" width="1440" height="768" />
</clipPath>
<path style="stroke: none; stroke-width: 1; stroke-dasharray: none; stroke-linecap: butt; stroke-dashoffset: 0; stroke-linejoin: miter; stroke-miterlimit: 4; fill: rgb(224,57,52); fill-rule: nonzero; opacity: 1;" vector-effect="non-scaling-stroke"  transform=" translate(-688.68, -415.29)" d="M 688.676 418.825 C 690.63 418.825 692.213 417.241 692.213 415.288 C 692.213 413.334 690.63 411.75 688.676 411.75 C 686.722 411.75 685.138 413.334 685.138 415.288 C 685.138 417.241 686.722 418.825 688.676 418.825 Z" stroke-linecap="round" />
</g>
		<g transform="matrix(1 0 0 1 -19.04 -6.61)" clip-path="url(#CLIPPATH_409)"  >
<clipPath id="CLIPPATH_409" >
	<rect transform="matrix(1 0 0 1 19.04 -31.29)" id="clip0_2923_51892" x="-720" y="-384" rx="0" ry="0" width="1440" height="768" />
</clipPath>
<path style="stroke: none; stroke-width: 1; stroke-dasharray: none; stroke-linecap: butt; stroke-dashoffset: 0; stroke-linejoin: miter; stroke-miterlimit: 4; fill: rgb(251,219,117); fill-rule: nonzero; opacity: 1;" vector-effect="non-scaling-stroke"  transform=" translate(-700.96, -415.29)" d="M 700.956 418.825 C 702.91 418.825 704.494 417.241 704.494 415.288 C 704.494 413.334 702.91 411.75 700.956 411.75 C 699.003 411.75 697.419 413.334 697.419 415.288 C 697.419 417.241 699.003 418.825 700.956 418.825 Z" stroke-linecap="round" />
</g>
		<g transform="matrix(1 0 0 1 -6.76 -6.61)" clip-path="url(#CLIPPATH_410)"  >
<clipPath id="CLIPPATH_410" >
	<rect transform="matrix(1 0 0 1 6.76 -31.29)" id="clip0_2923_51892" x="-720" y="-384" rx="0" ry="0" width="1440" height="768" />
</clipPath>
<path style="stroke: none; stroke-width: 1; stroke-dasharray: none; stroke-linecap: butt; stroke-dashoffset: 0; stroke-linejoin: miter; stroke-miterlimit: 4; fill: rgb(141,198,63); fill-rule: nonzero; opacity: 1;" vector-effect="non-scaling-stroke"  transform=" translate(-713.24, -415.29)" d="M 713.237 418.825 C 715.191 418.825 716.774 417.241 716.774 415.288 C 716.774 413.334 715.191 411.75 713.237 411.75 C 711.283 411.75 709.699 413.334 709.699 415.288 C 709.699 417.241 711.283 418.825 713.237 418.825 Z" stroke-linecap="round" />
</g>
		<g transform="matrix(1 0 0 1 2.65 63.59)" clip-path="url(#CLIPPATH_411)"  >
<clipPath id="CLIPPATH_411" >
	<rect transform="matrix(1 0 0 1 -2.65 -101.48)" id="clip0_2923_51892" x="-720" y="-384" rx="0" ry="0" width="1440" height="768" />
</clipPath>
<path style="stroke: rgb(145,105,255); stroke-width: 4; stroke-dasharray: none; stroke-linecap: round; stroke-dashoffset: 0; stroke-linejoin: round; stroke-miterlimit: 10; fill: none; fill-rule: nonzero; opacity: 1;" vector-effect="non-scaling-stroke"  transform=" translate(-722.65, -485.48)" d="M 692.214 441.9 L 709.7 441.9 M 715.006 529.064 L 753.085 529.064" stroke-linecap="round" />
</g>
		<g transform="matrix(1 0 0 1 60.83 20)" clip-path="url(#CLIPPATH_412)"  >
<clipPath id="CLIPPATH_412" >
	<rect transform="matrix(1 0 0 1 -60.83 -57.9)" id="clip0_2923_51892" x="-720" y="-384" rx="0" ry="0" width="1440" height="768" />
</clipPath>
<path style="stroke: rgb(255,255,255); stroke-width: 4; stroke-dasharray: none; stroke-linecap: round; stroke-dashoffset: 0; stroke-linejoin: round; stroke-miterlimit: 10; fill: none; fill-rule: nonzero; opacity: 1;" vector-effect="non-scaling-stroke"  transform=" translate(-780.83, -441.9)" d="M 775.116 441.9 L 786.549 441.9" stroke-linecap="round" />
</g>
		<g transform="matrix(1 0 0 1 21.7 20)" clip-path="url(#CLIPPATH_413)"  >
<clipPath id="CLIPPATH_413" >
	<rect transform="matrix(1 0 0 1 -21.7 -57.9)" id="clip0_2923_51892" x="-720" y="-384" rx="0" ry="0" width="1440" height="768" />
</clipPath>
<path style="stroke: rgb(123,255,160); stroke-width: 4; stroke-dasharray: none; stroke-linecap: round; stroke-dashoffset: 0; stroke-linejoin: round; stroke-miterlimit: 10; fill: none; fill-rule: nonzero; opacity: 1;" vector-effect="non-scaling-stroke"  transform=" translate(-741.7, -441.9)" d="M 716.774 441.9 L 766.632 441.9" stroke-linecap="round" />
</g>
		<g transform="matrix(1 0 0 1 -21.65 107.17)" clip-path="url(#CLIPPATH_414)"  >
<clipPath id="CLIPPATH_414" >
	<rect transform="matrix(1 0 0 1 21.65 -145.06)" id="clip0_2923_51892" x="-720" y="-384" rx="0" ry="0" width="1440" height="768" />
</clipPath>
<path style="stroke: rgb(123,255,160); stroke-width: 4; stroke-dasharray: none; stroke-linecap: round; stroke-dashoffset: 0; stroke-linejoin: round; stroke-miterlimit: 10; fill: none; fill-rule: nonzero; opacity: 1;" vector-effect="non-scaling-stroke"  transform=" translate(-698.35, -529.06)" d="M 692.214 529.063 L 704.493 529.063" stroke-linecap="round" />
</g>
		<g transform="matrix(1 0 0 1 50.18 30.9)" clip-path="url(#CLIPPATH_415)"  >
<clipPath id="CLIPPATH_415" >
	<rect transform="matrix(1 0 0 1 -50.18 -68.8)" id="clip0_2923_51892" x="-720" y="-384" rx="0" ry="0" width="1440" height="768" />
</clipPath>
<path style="stroke: rgb(255,255,255); stroke-width: 4; stroke-dasharray: none; stroke-linecap: round; stroke-dashoffset: 0; stroke-linejoin: round; stroke-miterlimit: 10; fill: none; fill-rule: nonzero; opacity: 1;" vector-effect="non-scaling-stroke"  transform=" translate(-770.18, -452.8)" d="M 766.633 452.796 L 773.721 452.796" stroke-linecap="round" />
</g>
		<g transform="matrix(1 0 0 1 26.07 30.9)" clip-path="url(#CLIPPATH_416)"  >
<clipPath id="CLIPPATH_416" >
	<rect transform="matrix(1 0 0 1 -26.07 -68.8)" id="clip0_2923_51892" x="-720" y="-384" rx="0" ry="0" width="1440" height="768" />
</clipPath>
<path style="stroke: rgb(145,105,255); stroke-width: 4; stroke-dasharray: none; stroke-linecap: round; stroke-dashoffset: 0; stroke-linejoin: round; stroke-miterlimit: 10; fill: none; fill-rule: nonzero; opacity: 1;" vector-effect="non-scaling-stroke"  transform=" translate(-746.07, -452.8)" d="M 734.026 452.796 L 758.105 452.796" stroke-linecap="round" />
</g>
		<g transform="matrix(1 0 0 1 -6.77 30.9)" clip-path="url(#CLIPPATH_417)"  >
<clipPath id="CLIPPATH_417" >
	<rect transform="matrix(1 0 0 1 6.77 -68.8)" id="clip0_2923_51892" x="-720" y="-384" rx="0" ry="0" width="1440" height="768" />
</clipPath>
<path style="stroke: rgb(255,196,125); stroke-width: 4; stroke-dasharray: none; stroke-linecap: round; stroke-dashoffset: 0; stroke-linejoin: round; stroke-miterlimit: 10; fill: none; fill-rule: nonzero; opacity: 1;" vector-effect="non-scaling-stroke"  transform=" translate(-713.23, -452.8)" d="M 700.957 452.796 L 725.493 452.796" stroke-linecap="round" />
</g>
		<g transform="matrix(1 0 0 1 29.48 41.79)" clip-path="url(#CLIPPATH_418)"  >
<clipPath id="CLIPPATH_418" >
	<rect transform="matrix(1 0 0 1 -29.48 -79.69)" id="clip0_2923_51892" x="-720" y="-384" rx="0" ry="0" width="1440" height="768" />
</clipPath>
<path style="stroke: rgb(255,255,255); stroke-width: 4; stroke-dasharray: none; stroke-linecap: round; stroke-dashoffset: 0; stroke-linejoin: round; stroke-miterlimit: 10; fill: none; fill-rule: nonzero; opacity: 1;" vector-effect="non-scaling-stroke"  transform=" translate(-749.48, -463.69)" d="M 738.935 463.691 L 760.017 463.691" stroke-linecap="round" />
</g>
		<g transform="matrix(1 0 0 1 2.29 41.79)" clip-path="url(#CLIPPATH_419)"  >
<clipPath id="CLIPPATH_419" >
	<rect transform="matrix(1 0 0 1 -2.29 -79.69)" id="clip0_2923_51892" x="-720" y="-384" rx="0" ry="0" width="1440" height="768" />
</clipPath>
<path style="stroke: rgb(255,87,87); stroke-width: 4; stroke-dasharray: none; stroke-linecap: round; stroke-dashoffset: 0; stroke-linejoin: round; stroke-miterlimit: 10; fill: none; fill-rule: nonzero; opacity: 1;" vector-effect="non-scaling-stroke"  transform=" translate(-722.29, -463.69)" d="M 712.35 463.691 L 732.233 463.691" stroke-linecap="round" />
</g>
		<g transform="matrix(1 0 0 1 23.93 52.69)" clip-path="url(#CLIPPATH_420)"  >
<clipPath id="CLIPPATH_420" >
	<rect transform="matrix(1 0 0 1 -23.93 -90.59)" id="clip0_2923_51892" x="-720" y="-384" rx="0" ry="0" width="1440" height="768" />
</clipPath>
<path style="stroke: rgb(255,255,255); stroke-width: 4; stroke-dasharray: none; stroke-linecap: round; stroke-dashoffset: 0; stroke-linejoin: round; stroke-miterlimit: 10; fill: none; fill-rule: nonzero; opacity: 1;" vector-effect="non-scaling-stroke"  transform=" translate(-743.93, -474.59)" d="M 741.747 474.587 L 746.114 474.587" stroke-linecap="round" />
</g>
		<g transform="matrix(1 0 0 1 9.12 52.69)" clip-path="url(#CLIPPATH_421)"  >
<clipPath id="CLIPPATH_421" >
	<rect transform="matrix(1 0 0 1 -9.12 -90.59)" id="clip0_2923_51892" x="-720" y="-384" rx="0" ry="0" width="1440" height="768" />
</clipPath>
<path style="stroke: rgb(145,105,255); stroke-width: 4; stroke-dasharray: none; stroke-linecap: round; stroke-dashoffset: 0; stroke-linejoin: round; stroke-miterlimit: 10; fill: none; fill-rule: nonzero; opacity: 1;" vector-effect="non-scaling-stroke"  transform=" translate(-729.12, -474.59)" d="M 724.218 474.587 L 734.026 474.587" stroke-linecap="round" />
</g>
		<g transform="matrix(1 0 0 1 -11.13 52.69)" clip-path="url(#CLIPPATH_422)"  >
<clipPath id="CLIPPATH_422" >
	<rect transform="matrix(1 0 0 1 11.13 -90.59)" id="clip0_2923_51892" x="-720" y="-384" rx="0" ry="0" width="1440" height="768" />
</clipPath>
<path style="stroke: rgb(123,255,160); stroke-width: 4; stroke-dasharray: none; stroke-linecap: round; stroke-dashoffset: 0; stroke-linejoin: round; stroke-miterlimit: 10; fill: none; fill-rule: nonzero; opacity: 1;" vector-effect="non-scaling-stroke"  transform=" translate(-708.87, -474.59)" d="M 700.957 474.587 L 716.775 474.587" stroke-linecap="round" />
</g>
		<g transform="matrix(1 0 0 1 29.02 63.59)" clip-path="url(#CLIPPATH_423)"  >
<clipPath id="CLIPPATH_423" >
	<rect transform="matrix(1 0 0 1 -29.02 -101.48)" id="clip0_2923_51892" x="-720" y="-384" rx="0" ry="0" width="1440" height="768" />
</clipPath>
<path style="stroke: rgb(255,196,125); stroke-width: 4; stroke-dasharray: none; stroke-linecap: round; stroke-dashoffset: 0; stroke-linejoin: round; stroke-miterlimit: 10; fill: none; fill-rule: nonzero; opacity: 1;" vector-effect="non-scaling-stroke"  transform=" translate(-749.02, -485.48)" d="M 734.918 485.482 L 763.125 485.482" stroke-linecap="round" />
</g>
		<g transform="matrix(1 0 0 1 -6.38 63.59)" clip-path="url(#CLIPPATH_424)"  >
<clipPath id="CLIPPATH_424" >
	<rect transform="matrix(1 0 0 1 6.38 -101.48)" id="clip0_2923_51892" x="-720" y="-384" rx="0" ry="0" width="1440" height="768" />
</clipPath>
<path style="stroke: rgb(255,87,87); stroke-width: 4; stroke-dasharray: none; stroke-linecap: round; stroke-dashoffset: 0; stroke-linejoin: round; stroke-miterlimit: 10; fill: none; fill-rule: nonzero; opacity: 1;" vector-effect="non-scaling-stroke"  transform=" translate(-713.62, -485.48)" d="M 700.957 485.482 L 726.274 485.482" stroke-linecap="round" />
</g>
		<g transform="matrix(1 0 0 1 55.22 74.48)" clip-path="url(#CLIPPATH_425)"  >
<clipPath id="CLIPPATH_425" >
	<rect transform="matrix(1 0 0 1 -55.22 -112.38)" id="clip0_2923_51892" x="-720" y="-384" rx="0" ry="0" width="1440" height="768" />
</clipPath>
<path style="stroke: rgb(145,105,255); stroke-width: 4; stroke-dasharray: none; stroke-linecap: round; stroke-dashoffset: 0; stroke-linejoin: round; stroke-miterlimit: 10; fill: none; fill-rule: nonzero; opacity: 1;" vector-effect="non-scaling-stroke"  transform=" translate(-775.22, -496.38)" d="M 767.547 496.378 L 782.884 496.378" stroke-linecap="round" />
</g>
		<g transform="matrix(1 0 0 1 27.19 74.48)" clip-path="url(#CLIPPATH_426)"  >
<clipPath id="CLIPPATH_426" >
	<rect transform="matrix(1 0 0 1 -27.19 -112.38)" id="clip0_2923_51892" x="-720" y="-384" rx="0" ry="0" width="1440" height="768" />
</clipPath>
<path style="stroke: rgb(255,87,87); stroke-width: 4; stroke-dasharray: none; stroke-linecap: round; stroke-dashoffset: 0; stroke-linejoin: round; stroke-miterlimit: 10; fill: none; fill-rule: nonzero; opacity: 1;" vector-effect="non-scaling-stroke"  transform=" translate(-747.19, -496.38)" d="M 734.918 496.378 L 759.459 496.378" stroke-linecap="round" />
</g>
		<g transform="matrix(1 0 0 1 -0.69 74.48)" clip-path="url(#CLIPPATH_427)"  >
<clipPath id="CLIPPATH_427" >
	<rect transform="matrix(1 0 0 1 0.69 -112.38)" id="clip0_2923_51892" x="-720" y="-384" rx="0" ry="0" width="1440" height="768" />
</clipPath>
<path style="stroke: rgb(123,255,160); stroke-width: 4; stroke-dasharray: none; stroke-linecap: round; stroke-dashoffset: 0; stroke-linejoin: round; stroke-miterlimit: 10; fill: none; fill-rule: nonzero; opacity: 1;" vector-effect="non-scaling-stroke"  transform=" translate(-719.31, -496.38)" d="M 712.35 496.378 L 726.274 496.378" stroke-linecap="round" />
</g>
		<g transform="matrix(1 0 0 1 32.76 85.38)" clip-path="url(#CLIPPATH_428)"  >
<clipPath id="CLIPPATH_428" >
	<rect transform="matrix(1 0 0 1 -32.76 -123.27)" id="clip0_2923_51892" x="-720" y="-384" rx="0" ry="0" width="1440" height="768" />
</clipPath>
<path style="stroke: rgb(255,255,255); stroke-width: 4; stroke-dasharray: none; stroke-linecap: round; stroke-dashoffset: 0; stroke-linejoin: round; stroke-miterlimit: 10; fill: none; fill-rule: nonzero; opacity: 1;" vector-effect="non-scaling-stroke"  transform=" translate(-752.76, -507.27)" d="M 746.066 507.273 L 759.459 507.273" stroke-linecap="round" />
</g>
		<g transform="matrix(1 0 0 1 4.62 85.38)" clip-path="url(#CLIPPATH_429)"  >
<clipPath id="CLIPPATH_429" >
	<rect transform="matrix(1 0 0 1 -4.62 -123.27)" id="clip0_2923_51892" x="-720" y="-384" rx="0" ry="0" width="1440" height="768" />
</clipPath>
<path style="stroke: rgb(145,105,255); stroke-width: 4; stroke-dasharray: none; stroke-linecap: round; stroke-dashoffset: 0; stroke-linejoin: round; stroke-miterlimit: 10; fill: none; fill-rule: nonzero; opacity: 1;" vector-effect="non-scaling-stroke"  transform=" translate(-724.62, -507.27)" d="M 712.35 507.273 L 736.886 507.273" stroke-linecap="round" />
</g>
		<g transform="matrix(1 0 0 1 68.48 96.27)" clip-path="url(#CLIPPATH_430)"  >
<clipPath id="CLIPPATH_430" >
	<rect transform="matrix(1 0 0 1 -68.48 -134.17)" id="clip0_2923_51892" x="-720" y="-384" rx="0" ry="0" width="1440" height="768" />
</clipPath>
<path style="stroke: rgb(255,255,255); stroke-width: 4; stroke-dasharray: none; stroke-linecap: round; stroke-dashoffset: 0; stroke-linejoin: round; stroke-miterlimit: 10; fill: none; fill-rule: nonzero; opacity: 1;" vector-effect="non-scaling-stroke"  transform=" translate(-788.48, -518.17)" d="M 780.833 518.168 L 796.125 518.168" stroke-linecap="round" />
</g>
		<g transform="matrix(1 0 0 1 33.29 96.27)" clip-path="url(#CLIPPATH_431)"  >
<clipPath id="CLIPPATH_431" >
	<rect transform="matrix(1 0 0 1 -33.29 -134.17)" id="clip0_2923_51892" x="-720" y="-384" rx="0" ry="0" width="1440" height="768" />
</clipPath>
<path style="stroke: rgb(255,196,125); stroke-width: 4; stroke-dasharray: none; stroke-linecap: round; stroke-dashoffset: 0; stroke-linejoin: round; stroke-miterlimit: 10; fill: none; fill-rule: nonzero; opacity: 1;" vector-effect="non-scaling-stroke"  transform=" translate(-753.29, -518.17)" d="M 734.026 518.168 L 772.558 518.168" stroke-linecap="round" />
</g>
		<g transform="matrix(1 0 0 1 -6.77 96.27)" clip-path="url(#CLIPPATH_432)"  >
<clipPath id="CLIPPATH_432" >
	<rect transform="matrix(1 0 0 1 6.77 -134.17)" id="clip0_2923_51892" x="-720" y="-384" rx="0" ry="0" width="1440" height="768" />
</clipPath>
<path style="stroke: rgb(255,255,255); stroke-width: 4; stroke-dasharray: none; stroke-linecap: round; stroke-dashoffset: 0; stroke-linejoin: round; stroke-miterlimit: 10; fill: none; fill-rule: nonzero; opacity: 1;" vector-effect="non-scaling-stroke"  transform=" translate(-713.23, -518.17)" d="M 700.957 518.168 L 725.493 518.168" stroke-linecap="round" />
</g>
		<g transform="matrix(1 0 0 1 176.67 110.57)" clip-path="url(#CLIPPATH_433)"  >
<clipPath id="CLIPPATH_433" >
	<rect transform="matrix(1 0 0 1 -176.67 -148.46)" id="clip0_2923_51892" x="-720" y="-384" rx="0" ry="0" width="1440" height="768" />
</clipPath>
<path style="stroke: none; stroke-width: 1; stroke-dasharray: none; stroke-linecap: butt; stroke-dashoffset: 0; stroke-linejoin: miter; stroke-miterlimit: 4; fill: rgb(98,173,232); fill-rule: nonzero; opacity: 1;" vector-effect="non-scaling-stroke"  transform=" translate(-896.67, -532.46)" d="M 942.549 587.406 L 850.796 587.406 C 849.118 587.406 847.508 586.739 846.322 585.553 C 845.135 584.366 844.469 582.757 844.469 581.079 L 844.469 483.846 C 844.469 482.167 845.135 480.558 846.322 479.372 C 847.508 478.185 849.118 477.519 850.796 477.519 L 942.549 477.519 C 944.227 477.519 945.837 478.185 947.023 479.372 C 948.21 480.558 948.876 482.167 948.876 483.846 L 948.876 581.079 C 948.876 582.757 948.21 584.366 947.023 585.553 C 945.837 586.739 944.227 587.406 942.549 587.406 Z" stroke-linecap="round" />
</g>
		<g transform="matrix(1 0 0 1 176.67 90.15)" clip-path="url(#CLIPPATH_434)"  >
<clipPath id="CLIPPATH_434" >
	<rect transform="matrix(1 0 0 1 -176.67 -128.05)" id="clip0_2923_51892" x="-720" y="-384" rx="0" ry="0" width="1440" height="768" />
</clipPath>
<path style="stroke: rgb(255,255,255); stroke-width: 2; stroke-dasharray: none; stroke-linecap: round; stroke-dashoffset: 0; stroke-linejoin: round; stroke-miterlimit: 10; fill: none; fill-rule: nonzero; opacity: 1;" vector-effect="non-scaling-stroke"  transform=" translate(-896.67, -512.05)" d="M 928.896 507.63 L 864.386 507.63 C 863.302 507.63 862.263 507.199 861.496 506.433 C 860.73 505.666 860.3 504.627 860.3 503.543 L 860.3 497.375 C 860.3 496.291 860.73 495.251 861.496 494.485 C 862.263 493.719 863.302 493.288 864.386 493.288 L 928.896 493.288 C 929.98 493.288 931.02 493.719 931.786 494.485 C 932.552 495.251 932.983 496.291 932.983 497.375 L 932.983 503.543 C 932.983 504.627 932.552 505.666 931.786 506.433 C 931.02 507.199 929.98 507.63 928.896 507.63 Z M 900.547 530.808 L 864.449 530.808 C 863.913 530.808 863.381 530.702 862.885 530.497 C 862.39 530.291 861.939 529.99 861.56 529.611 C 861.18 529.231 860.879 528.781 860.674 528.285 C 860.469 527.789 860.363 527.258 860.363 526.721 L 860.363 520.553 C 860.363 520.016 860.469 519.484 860.674 518.989 C 860.879 518.493 861.18 518.042 861.56 517.663 C 861.939 517.284 862.39 516.983 862.885 516.777 C 863.381 516.572 863.913 516.466 864.449 516.466 L 900.547 516.466 C 901.631 516.466 902.67 516.897 903.436 517.663 C 904.203 518.429 904.633 519.469 904.633 520.553 L 904.633 526.721 C 904.633 527.805 904.203 528.844 903.436 529.611 C 902.67 530.377 901.631 530.808 900.547 530.808 Z M 928.96 530.808 L 914.997 530.808 C 913.913 530.808 912.874 530.377 912.107 529.611 C 911.341 528.844 910.91 527.805 910.91 526.721 L 910.91 520.553 C 910.91 519.469 911.341 518.429 912.107 517.663 C 912.874 516.897 913.913 516.466 914.997 516.466 L 928.96 516.466 C 930.043 516.466 931.083 516.897 931.849 517.663 C 932.616 518.429 933.046 519.469 933.046 520.553 L 933.046 526.721 C 933.046 527.805 932.616 528.844 931.849 529.611 C 931.083 530.377 930.043 530.808 928.96 530.808 Z" stroke-linecap="round" />
</g>
		<g transform="matrix(1 0 0 1 176.64 141.53)" clip-path="url(#CLIPPATH_435)"  >
<clipPath id="CLIPPATH_435" >
	<rect transform="matrix(1 0 0 1 -176.64 -179.42)" id="clip0_2923_51892" x="-720" y="-384" rx="0" ry="0" width="1440" height="768" />
</clipPath>
<path style="stroke: rgb(255,255,255); stroke-width: 2; stroke-dasharray: none; stroke-linecap: round; stroke-dashoffset: 0; stroke-linejoin: round; stroke-miterlimit: 10; fill: none; fill-rule: nonzero; opacity: 1;" vector-effect="non-scaling-stroke"  transform=" translate(-896.64, -563.42)" d="M 860.3 554.89 L 932.983 554.89 M 860.3 563.424 L 932.983 563.424 M 860.3 571.957 L 904.57 571.957" stroke-linecap="round" />
</g>
</g>
</g>
</svg>